<?xml version="1.0" encoding="UTF-8" standalone="no"?>
<!-- Created with Inkscape (http://www.inkscape.org/) -->

<svg
   xmlns:dc="http://purl.org/dc/elements/1.1/"
   xmlns:cc="http://creativecommons.org/ns#"
   xmlns:rdf="http://www.w3.org/1999/02/22-rdf-syntax-ns#"
   xmlns:svg="http://www.w3.org/2000/svg"
   xmlns="http://www.w3.org/2000/svg"
   xmlns:sodipodi="http://sodipodi.sourceforge.net/DTD/sodipodi-0.dtd"
   xmlns:inkscape="http://www.inkscape.org/namespaces/inkscape"
   width="210mm"
   height="297mm"
   viewBox="0 0 744.09448819 1052.3622047"
   id="svg2"
   version="1.1"
   inkscape:version="0.91 r13725"
   sodipodi:docname="LogoWhite.svg">
  <defs
     id="defs4" />
  <sodipodi:namedview
     id="base"
     pagecolor="#ffffff"
     bordercolor="#666666"
     borderopacity="1.0"
     inkscape:pageopacity="0.0"
     inkscape:pageshadow="2"
     inkscape:zoom="1.4"
     inkscape:cx="292.49233"
     inkscape:cy="588.83313"
     inkscape:document-units="px"
     inkscape:current-layer="layer1"
     showgrid="false"
     inkscape:window-width="1858"
     inkscape:window-height="1177"
     inkscape:window-x="1272"
     inkscape:window-y="-8"
     inkscape:window-maximized="1" />
  <metadata
     id="metadata7">
    <rdf:RDF>
      <cc:Work
         rdf:about="">
        <dc:format>image/svg+xml</dc:format>
        <dc:type
           rdf:resource="http://purl.org/dc/dcmitype/StillImage" />
        <dc:title></dc:title>
      </cc:Work>
    </rdf:RDF>
  </metadata>
  <g
     inkscape:label="Layer 1"
     inkscape:groupmode="layer"
     id="layer1">
    <rect
       style="fill:#ffffff"
       id="rect3381"
       width="190.7778"
       height="697.37292"
       x="0.50507617"
       y="357.37726" />
    <rect
       style="fill:#ffffff"
       id="rect3381-8"
       width="181.45621"
       height="698.08722"
       x="563.02625"
       y="354.81598" />
    <path
       style="fill:#ffffff"
       d="M 374.28516 0.93359375 A 372.85715 347.14285 0 0 0 1.4277344 348.07617 A 372.85715 347.14285 0 0 0 190 649.35742 L 190 358.07617 L 191.79688 358.07617 A 185.71429 180 0 0 1 377.14258 185.21875 A 185.71429 180 0 0 1 562.5957 358.07617 L 567.14258 358.07617 L 567.14258 644.67383 A 372.85715 347.14285 0 0 0 747.14258 348.07617 A 372.85715 347.14285 0 0 0 374.28516 0.93359375 z "
       id="path3494" />
    <rect
       style="fill:#ffffff"
       id="rect3566"
       width="35"
       height="83.571426"
       x="563.57141"
       y="347.36221" />
    <ellipse
       style="fill:#ffffff"
       id="path3570"
       cx="378.90317"
       cy="386.07721"
       rx="112.85715"
       ry="109.99999" />
    <rect
       style="fill:#ffffff"
       id="rect3574"
       width="451.42856"
       height="172.85715"
       x="147.14285"
       y="612.36218" />
    <rect
       style="fill:#ffffff"
       id="rect3576"
       width="225.26402"
       height="100.51018"
       x="266.3844"
       y="413.77246" />
    <rect
       style="fill:#ffffff"
       id="rect3578"
       width="42.931484"
       height="20.203051"
       x="146.97719"
       y="414.45087" />
    <rect
       style="fill:#ffffff"
       id="rect3580"
       width="226.27417"
       height="91.923882"
       x="265.6701"
       y="375.56" />
  </g>
</svg>
