<?xml version="1.0" encoding="UTF-8" standalone="no"?>
<!-- Created with Inkscape (http://www.inkscape.org/) -->

<svg
   xmlns:dc="http://purl.org/dc/elements/1.1/"
   xmlns:cc="http://creativecommons.org/ns#"
   xmlns:rdf="http://www.w3.org/1999/02/22-rdf-syntax-ns#"
   xmlns:svg="http://www.w3.org/2000/svg"
   xmlns="http://www.w3.org/2000/svg"
   xmlns:sodipodi="http://sodipodi.sourceforge.net/DTD/sodipodi-0.dtd"
   xmlns:inkscape="http://www.inkscape.org/namespaces/inkscape"
   width="210mm"
   height="297mm"
   viewBox="0 0 744.09448819 1052.3622047"
   id="svg2"
   version="1.1"
   inkscape:version="0.91 r13725"
   sodipodi:docname="LogoBlack.svg">
  <defs
     id="defs4" />
  <sodipodi:namedview
     id="base"
     pagecolor="#ffffff"
     bordercolor="#666666"
     borderopacity="1.0"
     inkscape:pageopacity="0.0"
     inkscape:pageshadow="2"
     inkscape:zoom="0.35"
     inkscape:cx="1016.4047"
     inkscape:cy="1254.2124"
     inkscape:document-units="px"
     inkscape:current-layer="layer1"
     showgrid="false"
     inkscape:window-width="1858"
     inkscape:window-height="1177"
     inkscape:window-x="1272"
     inkscape:window-y="-8"
     inkscape:window-maximized="1" />
  <metadata
     id="metadata7">
    <rdf:RDF>
      <cc:Work
         rdf:about="">
        <dc:format>image/svg+xml</dc:format>
        <dc:type
           rdf:resource="http://purl.org/dc/dcmitype/StillImage" />
        <dc:title></dc:title>
      </cc:Work>
    </rdf:RDF>
  </metadata>
  <g
     inkscape:label="Layer 1"
     inkscape:groupmode="layer"
     id="layer1">
    <rect
       style="fill:#000000"
       id="rect3381"
       width="188.64728"
       height="702.10931"
       x="-2.2418389"
       y="354.79239" />
    <rect
       style="fill:#000000"
       id="rect3381-8"
       width="184.61282"
       height="695.65723"
       x="558.74054"
       y="357.24603" />
    <path
       style="fill:#000000"
       d="M 369.96268,0.93359375 A 373.91458,347.14285 0 0 0 -3.9521615,348.07617 373.91458,347.14285 0 0 0 185.1549,649.35742 l 0,-291.28125 1.80196,0 A 186.24096,180 0 0 1 372.82821,185.21875 186.24096,180 0 0 1 558.80727,358.07617 l 4.55978,0 0,286.59766 A 373.91458,347.14285 0 0 0 743.87753,348.07617 373.91458,347.14285 0 0 0 369.96268,0.93359375 Z"
       id="path3494"
       inkscape:connector-curvature="0" />
    <rect
       style="fill:#000000"
       id="rect3566"
       width="35"
       height="83.571426"
       x="563.57141"
       y="347.36221" />
    <ellipse
       style="fill:#000000"
       id="path3570"
       cx="378.90317"
       cy="386.07721"
       rx="112.85715"
       ry="109.99999" />
    <rect
       style="fill:#000000"
       id="rect3574"
       width="451.42856"
       height="172.85715"
       x="147.14285"
       y="612.36218" />
    <rect
       style="fill:#000000"
       id="rect3576"
       width="225.62117"
       height="100.51018"
       x="266.1102"
       y="413.89874" />
    <rect
       style="fill:#000000"
       id="rect3580"
       width="225.73846"
       height="91.923882"
       x="266.02725"
       y="386.41916" />
  </g>
</svg>
